<svg id="svg2" xmlns="http://www.w3.org/2000/svg" xmlns:xlink="http://www.w3.org/1999/xlink" viewBox="0 0 3649.49 1513.68"><defs><clipPath id="clip-path" transform="translate(-52.64 38.61)"><rect width="2560" height="1440" style="fill:none"/></clipPath><clipPath id="clip-path-2" transform="translate(-52.64 38.61)"><path d="M696.64,101.08,237.83,366a100.41,100.41,0,0,0-50.21,87h0V982.73a100.41,100.41,0,0,0,50.21,87h0l458.81,264.9a100.41,100.41,0,0,0,100.42,0h0l458.81-264.9a100.42,100.42,0,0,0,50.21-87h0V452.94a100.44,100.44,0,0,0-50.21-87h0L797.06,101.08a100.32,100.32,0,0,0-50.21-13.45h0a100.35,100.35,0,0,0-50.21,13.45" style="fill:none"/></clipPath><clipPath id="clip-path-6" transform="translate(-52.64 38.61)"><rect x="2635.59" width="2036.56" height="1440" style="fill:none"/></clipPath></defs><title>LogoHexagonal</title><g id="g14"><g style="clip-path:url(#clip-path)"><g id="g16"><g id="g22"><path id="path24" d="M187.62,452.94V982.73a100.42,100.42,0,0,0,50.21,87l458.81,264.9a100.46,100.46,0,0,0,100.42,0l458.81-264.9a100.42,100.42,0,0,0,50.21-87V452.94a100.4,100.4,0,0,0-50.21-87L797.06,101.08a100.41,100.41,0,0,0-100.42,0L237.83,366a100.41,100.41,0,0,0-50.21,87" transform="translate(-52.64 38.61)" style="fill:#fff"/></g></g></g></g><g id="g26"><g style="clip-path:url(#clip-path-2)"><g id="g28"><path id="path34" d="M1441.07,1208.7H52.64V227H1441.07Z" transform="translate(-52.64 38.61)" style="fill:#fff"/></g></g></g><g id="g36"><g style="clip-path:url(#clip-path)"><g id="g38"><g id="g44"><path id="path46" d="M146.85,429.4v576.87a100.42,100.42,0,0,0,50.21,87l499.58,288.44a100.46,100.46,0,0,0,100.42,0l499.58-288.44a100.42,100.42,0,0,0,50.21-87V429.4a100.42,100.42,0,0,0-50.21-87L797.06,54a100.41,100.41,0,0,0-100.42,0L197.06,342.44A100.41,100.41,0,0,0,146.85,429.4Z" transform="translate(-52.64 38.61)" style="fill:none;stroke:#12a4b4;stroke-miterlimit:10;stroke-width:18.597999572753906px"/></g></g></g></g><g id="text54" style="isolation:isolate"><text transform="translate(1652.21 851.06)" style="isolation:isolate;font-size:106.66665649414062px;fill:#12a4b4;font-family:Arial-Black, Arial;font-weight:800"> </text></g><g id="g56"><g style="clip-path:url(#clip-path)"><g id="g58"><g id="g64"><path id="path66" d="M667,667.71c-9.58-10.43-18.42-13.28-27.45-13.28-26.89,0-44.76,21.25-44.76,48,0,28.64,17.87,49.89,44.76,49.89,10.51,0,20.64-4.94,29.3-16.32L688,750c-11.79,16.69-29.48,23.9-48.64,23.9-40.16,0-68.9-28.07-68.9-70,0-43.06,28.74-71.13,68.9-71.13,17.69,0,32.79,5.88,45.69,21.24Z" transform="translate(-52.64 38.61)" style="fill:#1b3f78"/></g><path id="path68" d="M758.56,773.93h23.52V679.85H758.56Z" transform="translate(-52.64 38.61)" style="fill:#1b3f78"/><path id="path70" d="M758.56,656.33h23.52V632.81H758.56Z" transform="translate(-52.64 38.61)" style="fill:#1b3f78"/><path id="path72" d="M711.52,773.93H735V703.37H711.52Z" transform="translate(-52.64 38.61)" style="fill:#1b3f78"/><path id="path74" d="M711.52,656.33H735V632.81H711.52Z" transform="translate(-52.64 38.61)" style="fill:#1b3f78"/><path id="path76" d="M805.59,632.81h94.08v23.53H805.59Z" transform="translate(-52.64 38.61)" style="fill:#1b3f78"/><path id="path78" d="M840.87,679.85h23.52v94.07H840.87Z" transform="translate(-52.64 38.61)" style="fill:#1b3f78"/><g id="g80"><path id="path82" d="M1116.49,664.65c-5.18-7.28-14.38-10.74-23.77-10.74-11.12,0-22.23,5-22.23,17.45,0,27.22,64.4,11.69,64.4,60,0,29.14-23,43.32-49.64,43.32-16.87,0-33.36-5.17-44.48-18.4L1059,738.64a32,32,0,0,0,26.84,14.19c11.12,0,23.77-6.14,23.77-18.6,0-29.71-64.41-12.65-64.41-61.15,0-28,24.92-41,50-41,14.19,0,28.37,4,38.92,14Z" transform="translate(-52.64 38.61)" style="fill:#1b3f78"/></g><path id="path84" d="M1017.25,656.34H923.18V632.82h94.07Z" transform="translate(-52.64 38.61)" style="fill:#1b3f78"/><path id="path86" d="M1017.25,773.93H923.18V750.41h94.07Z" transform="translate(-52.64 38.61)" style="fill:#1b3f78"/><path id="path88" d="M993.79,715.13H923.18V691.61h70.61Z" transform="translate(-52.64 38.61)" style="fill:#1b3f78"/></g></g></g><g id="text92" style="isolation:isolate"><text transform="translate(658.94 859.57) scale(1.17 1)" style="isolation:isolate;font-size:25.924930572509766px;fill:#12a4b4;font-family:Arial-BoldItalicMT, Arial;font-weight:700;font-style:italic">I</text><text transform="translate(667.4 859.57) scale(1.17 1)" style="isolation:isolate;font-size:25.924930572509766px;fill:#12a4b4;font-family:Arial-BoldItalicMT, Arial;font-weight:700;font-style:italic">n</text><text transform="translate(686.01 859.57) scale(1.17 1)" style="isolation:isolate;font-size:25.924930572509766px;fill:#12a4b4;font-family:Arial-BoldItalicMT, Arial;font-weight:700;font-style:italic">n</text><text transform="translate(704.62 859.57) scale(1.17 1)" style="isolation:isolate;font-size:25.924930572509766px;fill:#12a4b4;font-family:Arial-BoldItalicMT, Arial;font-weight:700;font-style:italic">o</text><text transform="translate(723.23 859.57) scale(1.17 1)" style="isolation:isolate;font-size:25.924930572509766px;fill:#12a4b4;font-family:Arial-BoldItalicMT, Arial;font-weight:700;font-style:italic">v</text><text transform="translate(740.17 859.57) scale(1.17 1)" style="isolation:isolate;font-size:25.924930572509766px;fill:#12a4b4;font-family:Arial-BoldItalicMT, Arial;font-weight:700;font-style:italic">a</text><text transform="translate(757.1 859.57) scale(1.17 1)" style="isolation:isolate;font-size:25.924930572509766px;fill:#12a4b4;font-family:Arial-BoldItalicMT, Arial;font-weight:700;font-style:italic">c</text><text transform="translate(774.04 859.57) scale(1.17 1)" style="isolation:isolate;font-size:25.924930572509766px;fill:#12a4b4;font-family:Arial-BoldItalicMT, Arial;font-weight:700;font-style:italic">i</text><text transform="translate(782.5 859.57) scale(1.17 1)" style="isolation:isolate;font-size:25.924930572509766px;fill:#12a4b4;font-family:Arial-BoldItalicMT, Arial;font-weight:700;font-style:italic">รณ</text><text transform="translate(801.11 859.57) scale(1.17 1)" style="isolation:isolate;font-size:25.924930572509766px;fill:#12a4b4;font-family:Arial-BoldItalicMT, Arial;font-weight:700;font-style:italic">n</text><text transform="translate(819.72 859.57) scale(1.17 1)" style="isolation:isolate;font-size:25.924930572509766px;fill:#12a4b4;font-family:Arial-BoldItalicMT, Arial;font-weight:700;font-style:italic"> </text><text transform="translate(828.19 859.57) scale(1.17 1)" style="isolation:isolate;font-size:25.924930572509766px;fill:#12a4b4;font-family:Arial-BoldItalicMT, Arial;font-weight:700;font-style:italic">p</text><text transform="translate(846.8 859.57) scale(1.17 1)" style="isolation:isolate;font-size:25.924930572509766px;fill:#12a4b4;font-family:Arial-BoldItalicMT, Arial;font-weight:700;font-style:italic">a</text><text transform="translate(863.73 859.57) scale(1.17 1)" style="isolation:isolate;font-size:25.924930572509766px;fill:#12a4b4;font-family:Arial-BoldItalicMT, Arial;font-weight:700;font-style:italic">r</text><text transform="translate(875.58 859.57) scale(1.17 1)" style="isolation:isolate;font-size:25.924930572509766px;fill:#12a4b4;font-family:Arial-BoldItalicMT, Arial;font-weight:700;font-style:italic">a</text><text transform="translate(892.52 859.57) scale(1.17 1)" style="isolation:isolate;font-size:25.924930572509766px;fill:#12a4b4;font-family:Arial-BoldItalicMT, Arial;font-weight:700;font-style:italic"> </text><text transform="translate(900.98 859.57) scale(1.17 1)" style="isolation:isolate;font-size:25.924930572509766px;fill:#12a4b4;font-family:Arial-BoldItalicMT, Arial;font-weight:700;font-style:italic">e</text><text transform="translate(917.92 859.57) scale(1.17 1)" style="isolation:isolate;font-size:25.924930572509766px;fill:#12a4b4;font-family:Arial-BoldItalicMT, Arial;font-weight:700;font-style:italic">l</text><text transform="translate(926.39 859.57) scale(1.17 1)" style="isolation:isolate;font-size:25.924930572509766px;fill:#12a4b4;font-family:Arial-BoldItalicMT, Arial;font-weight:700;font-style:italic"> </text><text transform="translate(934.85 859.57) scale(1.17 1)" style="isolation:isolate;font-size:25.924930572509766px;fill:#12a4b4;font-family:Arial-BoldItalicMT, Arial;font-weight:700;font-style:italic">d</text><text transform="translate(953.46 859.57) scale(1.17 1)" style="isolation:isolate;font-size:25.924930572509766px;fill:#12a4b4;font-family:Arial-BoldItalicMT, Arial;font-weight:700;font-style:italic">e</text><text transform="translate(970.4 859.57) scale(1.17 1)" style="isolation:isolate;font-size:25.924930572509766px;fill:#12a4b4;font-family:Arial-BoldItalicMT, Arial;font-weight:700;font-style:italic">s</text><text transform="translate(987.33 859.57) scale(1.17 1)" style="isolation:isolate;font-size:25.924930572509766px;fill:#12a4b4;font-family:Arial-BoldItalicMT, Arial;font-weight:700;font-style:italic">a</text><text transform="translate(1004.27 859.57) scale(1.17 1)" style="isolation:isolate;font-size:25.924930572509766px;fill:#12a4b4;font-family:Arial-BoldItalicMT, Arial;font-weight:700;font-style:italic">r</text><text transform="translate(1016.11 859.57) scale(1.17 1)" style="isolation:isolate;font-size:25.924930572509766px;fill:#12a4b4;font-family:Arial-BoldItalicMT, Arial;font-weight:700;font-style:italic">r</text><text transform="translate(1027.96 859.57) scale(1.17 1)" style="isolation:isolate;font-size:25.924930572509766px;fill:#12a4b4;font-family:Arial-BoldItalicMT, Arial;font-weight:700;font-style:italic">o</text><text transform="translate(1046.57 859.57) scale(1.17 1)" style="isolation:isolate;font-size:25.924930572509766px;fill:#12a4b4;font-family:Arial-BoldItalicMT, Arial;font-weight:700;font-style:italic">l</text><text transform="translate(1055.04 859.57) scale(1.17 1)" style="isolation:isolate;font-size:25.924930572509766px;fill:#12a4b4;font-family:Arial-BoldItalicMT, Arial;font-weight:700;font-style:italic">l</text><text transform="translate(1063.51 859.57) scale(1.17 1)" style="isolation:isolate;font-size:25.924930572509766px;fill:#12a4b4;font-family:Arial-BoldItalicMT, Arial;font-weight:700;font-style:italic">o</text></g><g id="g94"><g style="clip-path:url(#clip-path)"><g id="g96"><g id="g102"><path id="path104" d="M441.12,683.17c-11.08,0-20.07-10.36-20.07-23.15s9-23.15,20.07-23.15,20.07,10.36,20.07,23.15-9,23.15-20.07,23.15" transform="translate(-52.64 38.61)" style="fill:#7dae46"/></g><g id="g106"><path id="path108" d="M499.71,722.49a17.15,17.15,0,0,1-23.74,4.2,16.81,16.81,0,0,1-3.59-23.64,17.15,17.15,0,0,1,23.74-4.2,16.8,16.8,0,0,1,3.59,23.64" transform="translate(-52.64 38.61)" style="fill:#12a4b4"/></g><g id="g110"><path id="path112" d="M421,713.6c-9.1,12.59-26.5,15.67-38.85,6.89s-15-26.1-5.88-38.69,26.49-15.66,38.84-6.88,15,26.1,5.89,38.68" transform="translate(-52.64 38.61)" style="fill:#fdd22d"/></g><g id="g114"><path id="path116" d="M428.24,780.32,370.82,755.5a24,24,0,0,1-12-20.74V665.82a21.37,21.37,0,0,1,10.66-18.46l61-35.21a21.36,21.36,0,0,1,21.32,0l61,35.21a21.37,21.37,0,0,1,10.66,18.46v68.94a24,24,0,0,1-11.95,20.7l-.32.16-56.64,24.47-2.47-5.71L508.52,750a17.74,17.74,0,0,0,8.68-15.22V665.82a15.13,15.13,0,0,0-7.54-13.06l-61-35.22a15.1,15.1,0,0,0-15.08,0l-61,35.22A15.13,15.13,0,0,0,365,665.82v68.94A17.74,17.74,0,0,0,373.72,750l57,24.62Z" transform="translate(-52.64 38.61)" style="fill:#1b3f78"/></g><g id="g118"><path id="path120" d="M486.05,708.74a4,4,0,1,0,4,4,4,4,0,0,0-4-4M444.23,821H438V729.53l37.84-15.6a11.11,11.11,0,0,1-.07-1.16,10.26,10.26,0,1,1,2.62,6.85L444.23,733.7Z" transform="translate(-52.64 38.61)" style="fill:#1b3f78"/></g><g id="g122"><path id="path124" d="M440.81,656a4,4,0,1,0,4,4,4,4,0,0,0-4-4m-42.16,37.68a4,4,0,1,0,4,4,4,4,0,0,0-4-4m45.27,25.47-37.35-14.91a10.26,10.26,0,1,1,2.35-6.53q0,.38,0,.75l28.8,11.49V669.8a10.27,10.27,0,1,1,6.23,0Z" transform="translate(-52.64 38.61)" style="fill:#1b3f78"/></g><path id="path126" d="M476.4,821H405.84v-6.23H476.4Z" transform="translate(-52.64 38.61)" style="fill:#1b3f78"/><g id="g128"><g style="clip-path:url(#clip-path-6)"><g id="g130"><g id="g136"><path id="path138" d="M2293.26,436.33c-.48-50,27.79-98.63,71.28-123.22C2549.13,204.71,2731.19,92,2915.21-17.35a152.49,152.49,0,0,1,120.9-15,155.94,155.94,0,0,1,32.3,13.76c71.33,40.67,208.06,118.79,279.16,159.84q140.5,81,280.48,162.92a153.62,153.62,0,0,1,73.16,114.68,165,165,0,0,1,.9,21.21c-.89,207.3-2.85,431.17-6,638.43a150.52,150.52,0,0,1-3.35,30.8c-8.62,40.61-35.51,77-71.79,96.91-115.78,50-233.79,101.78-349,153.51-66.49,29.38-144.14,65.68-207.58,94.56a147,147,0,0,1-72.92,20.65c-24.39,1.36-55.19-7.82-73.25-18.24-160.23-68.42-331.25-141.5-489.31-213.42-23.51-10.74-47.14-21.23-70.55-32.17a149.63,149.63,0,0,1-73.74-133.3c4.23-208.36,9-433.88,8.69-641.48m2.9,0c-.84,207.37,5,433.38,8.69,641.48a129.36,129.36,0,0,0,65.6,112.28c17.41,7.44,47.12,20.33,68.79,29.85,158.9,69.65,328.36,147,486.08,220.69a132.69,132.69,0,0,0,66.1,19.09,130.58,130.58,0,0,0,34.24-3.94,132.58,132.58,0,0,0,32.18-12.75c67.73-28.72,142.6-61.86,210.45-91.48,115.52-51.2,233-103.83,347.67-156.56,18.61-10.88,39.51-31.78,49.93-53.61a131.74,131.74,0,0,0,14.28-58.16c0-1.56,0-3,0-4.71l-.13-9.82c-3.18-205.55-5-427.86-5.93-633.41A125.13,125.13,0,0,0,3611,328.39c-182.79-104.14-380.51-218.8-562.77-325.17-37-19.6-83.59-18.72-120,1.91-186.73,104.67-375.34,206-561.51,311.66-42.9,23.3-70.8,70.72-70.51,119.54" transform="translate(-52.64 38.61)" style="fill:#12a4b4"/></g><g id="g140"><path id="path142" d="M2342.05,463.67v588.92a139.35,139.35,0,0,0,69.67,120.68l510,220.73a139.34,139.34,0,0,0,139.34,0l510-220.73a139.35,139.35,0,0,0,69.67-120.68V463.67A139.35,139.35,0,0,0,3571.12,343l-510-294.46a139.34,139.34,0,0,0-139.34,0L2411.72,343a139.35,139.35,0,0,0-69.67,120.68" transform="translate(-52.64 38.61)" style="fill:#fff"/></g><g id="g144"><path id="path146" d="M2845.13,847.13c-66.24,91.57-192.82,114-282.72,50.09s-109.07-189.94-42.82-281.51,192.81-114,282.71-50.09,109.07,189.94,42.83,281.51" transform="translate(-52.64 38.61)" style="fill:#fdd22d"/></g><g id="g148"><path id="path150" d="M2897.71,1332.65,2479.82,1152a174.64,174.64,0,0,1-87.4-150.89V499.42A155.56,155.56,0,0,1,2470,365.08l443.87-256.27a155.57,155.57,0,0,1,155.13,0l443.88,256.27a155.56,155.56,0,0,1,77.56,134.34v501.69a174.43,174.43,0,0,1-87,150.64l-2.34,1.18L3088.94,1331l-18-41.62,410.92-177.54a129,129,0,0,0,63.21-110.74V499.42a110.09,110.09,0,0,0-54.89-95.07L3046.31,148.08a110,110,0,0,0-109.79,0L2492.65,404.35a110.09,110.09,0,0,0-54.9,95.07v501.69A129,129,0,0,0,2501,1111.85L2915.69,1291Z" transform="translate(-52.64 38.61)" style="fill:#1b3f78"/></g></g></g></g></g></g></g></svg>